<?xml version="1.0" encoding="UTF-8" standalone="no"?>
<!DOCTYPE svg PUBLIC "-//W3C//DTD SVG 1.1//EN" "http://www.w3.org/Graphics/SVG/1.1/DTD/svg11.dtd">
<svg xmlns="http://www.w3.org/2000/svg" version="1.1" viewBox="0.00 0.00 286.00 236.00">
<path fill="#6747d5" d="
  M 241.24 117.66
  A 99.67 99.67 0.0 0 1 141.57 217.33
  A 99.67 99.67 0.0 0 1 41.90 117.66
  A 99.67 99.67 0.0 0 1 141.57 17.99
  A 99.67 99.67 0.0 0 1 241.24 117.66
  Z
  M 147.52 91.82
  A 0.25 0.25 0.0 0 1 147.61 92.19
  L 106.58 147.85
  A 3.71 3.70 63.4 0 0 105.87 150.00
  L 105.84 162.94
  Q 105.84 163.79 106.69 163.79
  L 132.04 163.77
  A 1.02 1.02 0.0 0 1 133.06 164.79
  L 133.08 179.47
  A 1.13 1.13 0.0 0 0 134.22 180.60
  L 149.04 180.55
  A 1.08 1.08 0.0 0 0 150.12 179.46
  L 150.06 165.11
  A 1.33 1.33 0.0 0 1 151.39 163.77
  L 176.48 163.78
  A 0.76 0.76 0.0 0 0 177.24 163.01
  L 177.23 144.99
  A 1.25 1.24 89.8 0 0 175.99 143.75
  L 136.24 143.72
  A 0.58 0.58 0.0 0 1 135.77 142.79
  L 176.63 87.41
  A 3.14 3.14 0.0 0 0 177.24 85.55
  L 177.24 72.49
  Q 177.24 71.50 176.24 71.49
  L 150.76 71.45
  A 0.69 0.69 0.0 0 1 150.07 70.76
  L 150.10 55.25
  A 0.72 0.72 0.0 0 0 149.38 54.53
  L 133.80 54.54
  A 0.74 0.74 0.0 0 0 133.06 55.28
  L 133.05 70.57
  Q 133.05 71.45 132.18 71.45
  L 106.44 71.48
  Q 105.85 71.48 105.85 72.06
  L 105.86 90.53
  A 1.07 1.06 -90.0 0 0 106.92 91.60
  Q 126.90 91.65 146.40 91.58
  Q 146.99 91.57 147.52 91.82
  Z"
/>
</svg>
